
<svg width="846px" height="754px" viewBox="0 0 846 754" version="1.1" xmlns="http://www.w3.org/2000/svg" xmlns:xlink="http://www.w3.org/1999/xlink">
    <defs>
        <linearGradient x1="60.077094%" y1="23.7405545%" x2="37.4860564%" y2="82.6095373%" id="linearGradient-bn2hb9tf_7-1">
            <stop stop-color="#FFFFFF" offset="0%"></stop>
            <stop stop-color="#FFFFFF" stop-opacity="0" offset="100%"></stop>
        </linearGradient>
        <linearGradient x1="60.1883796%" y1="23.5396912%" x2="38.8691332%" y2="78.9008856%" id="linearGradient-bn2hb9tf_7-2">
            <stop stop-color="#FFFFFF" offset="0%"></stop>
            <stop stop-color="#FFFFFF" stop-opacity="0" offset="89.63%"></stop>
        </linearGradient>
        <linearGradient x1="44.2004334%" y1="1.54785933%" x2="54.8526259%" y2="96.9678287%" id="linearGradient-bn2hb9tf_7-3">
            <stop stop-color="#FFFFFF" offset="0%"></stop>
            <stop stop-color="#FFFFFF" stop-opacity="0" offset="100%"></stop>
        </linearGradient>
        <linearGradient x1="70.2858877%" y1="31.2918164%" x2="33.1047885%" y2="65.5812375%" id="linearGradient-bn2hb9tf_7-4">
            <stop stop-color="#FFFFFF" offset="0%"></stop>
            <stop stop-color="#FFFFFF" stop-opacity="0" offset="100%"></stop>
        </linearGradient>
        <linearGradient x1="56.2346688%" y1="20.4079742%" x2="44.7468095%" y2="74.9335679%" id="linearGradient-bn2hb9tf_7-5">
            <stop stop-color="#FFFFFF" offset="0%"></stop>
            <stop stop-color="#FFFFFF" stop-opacity="0" offset="100%"></stop>
        </linearGradient>
        <linearGradient x1="56.2347116%" y1="20.4080328%" x2="44.7467453%" y2="74.9336851%" id="linearGradient-bn2hb9tf_7-6">
            <stop stop-color="#FFFFFF" offset="0%"></stop>
            <stop stop-color="#FFFFFF" stop-opacity="0" offset="100%"></stop>
        </linearGradient>
        <linearGradient x1="63.4395712%" y1="35.5242557%" x2="29.7333924%" y2="71.783604%" id="linearGradient-bn2hb9tf_7-7">
            <stop stop-color="#FFFFFF" offset="0%"></stop>
            <stop stop-color="#FFFFFF" stop-opacity="0" offset="100%"></stop>
        </linearGradient>
    </defs>
    <g id="Illustrations" stroke="none" stroke-width="1" fill="none" fill-rule="evenodd">
        <g id="#9" transform="translate(-152.000000, -198.000000)">
            <g id="Illustration" transform="translate(152.300000, 198.300000)">
                <polygon id="Path" fill="url(#linearGradient-bn2hb9tf_7-1)" fill-rule="nonzero" opacity="0.1" points="393.9 5.8 791.6 604.5 394 374.9"></polygon>
                <path d="M773.6,646.3 C777.7,648.7 779.5,643.8 776.3,639 L355.7,5.9 C352.9,1.6 348.7,1.5 348.7,5.7 L348.8,395.9 C348.8,398.7 350.7,402 353.1,403.4 L773.6,646.3 Z M411,186.1 C411,181.9 415.2,182 418,186.3 L602.4,463.5 C605.6,468.3 603.8,473.2 599.7,470.8 L415.4,364.3 C413,362.9 411.1,359.6 411.1,356.8 L411,186.1 Z" id="Shape" fill="url(#linearGradient-bn2hb9tf_7-2)" fill-rule="nonzero" opacity="0.4"></path>
                <polygon id="Path" fill="url(#linearGradient-bn2hb9tf_7-3)" fill-rule="nonzero" opacity="0.3" points="547.4 18.9 845 190.8 845 345.9 573.7 189.1 547.5 197.7"></polygon>
                <path d="M607.8,105.8 C607.8,118.6 600.2,124.6 590.9,119.2 C581.6,113.8 574,99.1 574,86.3 C574,73.5 581.6,67.5 590.9,72.9 C600.3,78.3 607.8,93 607.8,105.8 Z" id="Path" fill="#FCA5A5"></path>
                <polygon id="Path" fill="#FFFFFF" fill-rule="nonzero" opacity="0.15" points="623.9 100.8 689.1 138.5 689.1 152.1 623.9 114.4"></polygon>
                <polygon id="Path" fill="#FFFFFF" fill-rule="nonzero" opacity="0.15" points="623.9 128.1 818.6 240.6 818.6 254.2 623.9 141.7"></polygon>
                <polygon id="Path" fill="#FFFFFF" fill-rule="nonzero" opacity="0.15" points="623.9 155.4 776.2 243.4 776.2 257 623.9 169"></polygon>
                <polygon id="Path" fill="url(#linearGradient-bn2hb9tf_7-4)" fill-rule="nonzero" opacity="0.3" points="297.5 401.1 0 229.2 0 384.3 271.3 541 297.6 579.9"></polygon>
                <path d="M237.1,418.1 C237.1,430.9 244.7,445.6 254,451 C263.3,456.4 270.9,450.4 270.9,437.6 C270.9,424.8 263.3,410.1 254,404.7 C244.7,399.4 237.1,405.4 237.1,418.1 Z" id="Path" fill="#EF4444"></path>
                <polygon id="Path" fill="#FFFFFF" fill-rule="nonzero" opacity="0.15" points="221 394.7 155.8 357 155.8 370.6 221 408.3"></polygon>
                <polygon id="Path" fill="#FFFFFF" fill-rule="nonzero" opacity="0.15" points="221.1 421.9 26.3 309.4 26.3 323 221 435.5"></polygon>
                <polygon id="Path" fill="#FFFFFF" fill-rule="nonzero" opacity="0.15" points="221.1 449.2 68.8 361.2 68.8 374.8 221.1 462.8"></polygon>
                <polygon id="Path" fill="url(#linearGradient-bn2hb9tf_7-5)" fill-rule="nonzero" opacity="0.2" points="191.7 0 316 71.8 316.1 341.1 191.7 269.3"></polygon>
                <polygon id="Path" fill="#EF4444" points="152.8 73.9 250.6 130.4 250.6 162.7 152.8 106.2 152.8 73.9"></polygon>
                <polygon id="Path" fill="#FFFFFF" fill-rule="nonzero" opacity="0.15" points="191.7 229.3 316 301.1 316 341 191.7 269.2"></polygon>
                <polygon id="Path" fill="#FFFFFF" fill-rule="nonzero" opacity="0.15" points="207 48.9 258 78.3 258 91.9 207 62.5"></polygon>
                <polygon id="Path" fill="#FFFFFF" fill-rule="nonzero" opacity="0.15" points="207.1 76.2 297.3 128.3 297.3 141.9 207.1 89.8"></polygon>
                <polygon id="Path" fill="#FFFFFF" fill-rule="nonzero" opacity="0.15" points="260 225.2 260 238.8 207.1 208.2 207.1 194.6"></polygon>
                <polygon id="Path" fill="url(#linearGradient-bn2hb9tf_7-6)" fill-rule="nonzero" opacity="0.2" points="454.3 483.9 330 412.1 330.1 681.4 454.4 753.2"></polygon>
                <polygon id="Path" fill="#FCA5A5" points="493.2 602.7 395.4 546.2 395.4 578.5 493.2 635"></polygon>
                <polygon id="Path" fill="#FFFFFF" fill-rule="nonzero" opacity="0.15" points="454.4 713.2 330.1 641.4 330.1 681.3 454.4 753.1"></polygon>
                <polygon id="Path" fill="#FFFFFF" fill-rule="nonzero" opacity="0.15" points="348.8 463 399.8 492.4 399.8 506 348.8 476.6"></polygon>
                <polygon id="Path" fill="#FFFFFF" fill-rule="nonzero" opacity="0.15" points="348.8 490.3 439 542.4 439 556 348.8 503.9"></polygon>
                <polygon id="Path" fill="#FFFFFF" fill-rule="nonzero" opacity="0.15" points="386.1 630.3 386.1 643.9 439 674.5 439 660.9"></polygon>
                <path d="M708,312.6 C714,316 718.8,324.4 718.8,331.3 L718.8,361.8 L739,373.4 C745,376.8 749.8,385.2 749.8,392.1 C749.8,399 745,401.8 739,398.4 L718.8,386.8 L718.8,417.3 C718.8,424.2 714,427 708,423.6 C702,420.2 697.2,411.8 697.2,404.9 L697.2,374.4 L677,362.7 C671,359.3 666.2,350.9 666.2,343.9 C666.2,337 671,334.2 677,337.6 L697.2,349.2 L697.2,318.7 C697.2,311.9 702,309.1 708,312.6 Z" id="Path" fill="url(#linearGradient-bn2hb9tf_7-7)" fill-rule="nonzero" opacity="0.2"></path>
            </g>
        </g>
    </g>
</svg>